<?xml version="1.0" encoding="iso-8859-1"?>
<!-- Uploaded to: SVG Repo, www.svgrepo.com, Generator: SVG Repo Mixer Tools -->
<svg version="1.1" id="Layer_1" xmlns="http://www.w3.org/2000/svg" xmlns:xlink="http://www.w3.org/1999/xlink" 
	 viewBox="0 0 511.998 511.998" xml:space="preserve">
<g>
	<polygon style="fill:#3E3B43;" points="161.477,501.386 146.504,486.413 245.412,387.506 245.412,419.145 	"/>
	<polygon style="fill:#3E3B43;" points="350.522,501.386 365.494,486.413 266.586,387.506 266.586,419.145 	"/>
</g>
<g>
	<rect x="245.407" y="190.705" style="fill:#D7D5D9;" width="21.173" height="66.648"/>
	<polygon style="fill:#D7D5D9;" points="245.412,324 245.412,305.799 266.586,305.799 266.586,504.421 245.412,504.421 
		245.412,359.623 	"/>
</g>
<polygon style="fill:#57545C;" points="226.288,71.143 218.496,7.579 292.969,7.579 283.188,74.083 "/>
<g>
	<polygon style="fill:#3E3B43;" points="285.329,142.572 293.236,207.074 218.762,207.074 228.084,143.701 	"/>
	<polygon style="fill:#3E3B43;" points="289.233,78.635 357.762,71.607 356.29,146.066 292.969,135.469 	"/>
</g>
<polygon style="fill:#57545C;" points="223.537,138.56 150.35,146.066 150.646,131.124 151.407,92.645 151.823,71.607 
	218.762,82.809 "/>
<rect x="230.814" y="257.352" style="fill:#3E3B43;" width="49.003" height="62.282"/>
<circle style="fill:#D7D5D9;" cx="255.735" cy="108.839" r="47.84"/>
<path style="fill:#FFFFFF;" d="M211.093,125.937c4.821,12.59,14.805,22.615,27.364,27.496l61.916-61.916
	c-4.881-12.559-14.907-22.543-27.497-27.364L211.093,125.937z"/>
<path d="M370.854,481.053l-96.688-96.688v-57.153h5.655c4.186,0,7.579-3.392,7.579-7.579v-62.277c0-4.187-3.394-7.579-7.579-7.579
	h-5.655v-35.122h19.07c2.171,0,4.237-0.931,5.676-2.556c1.438-1.626,2.111-3.791,1.847-5.945l-2.068-16.871
	c24.549-7.304,34.373-25.609,37.075-38.965l19.274,3.226c0.416,0.069,0.835,0.104,1.251,0.104c1.754,0,3.47-0.61,4.84-1.747
	c1.695-1.407,2.695-3.48,2.738-5.682l1.472-74.46c0.042-2.17-0.847-4.256-2.444-5.726c-1.598-1.471-3.749-2.192-5.907-1.964
	l-59.7,6.123c-0.545,0.056-1.068,0.171-1.568,0.332c-1.214-1.266-2.487-2.475-3.815-3.622l8.563-58.217
	c0.32-2.18-0.322-4.391-1.762-6.057C297.266,0.958,295.172,0,292.969,0h-74.473c-2.171,0-4.237,0.931-5.676,2.556
	c-1.438,1.626-2.111,3.791-1.847,5.945l3.65,29.784c0.509,4.155,4.291,7.11,8.445,6.601c4.154-0.509,7.11-4.29,6.601-8.444
	l-2.607-21.283h57.133l-6.308,42.89c-6.789-2.973-14.279-4.634-22.153-4.634c-17.416,0-32.973,8.083-43.14,20.684
	c-0.046-0.009-0.09-0.022-0.136-0.03l-59.382-9.938c-2.174-0.362-4.396,0.236-6.091,1.643c-1.695,1.407-2.695,3.48-2.738,5.682
	l-0.416,21.038c-0.083,4.186,3.243,7.645,7.428,7.727c0.052,0.002,0.102,0.002,0.153,0.002c4.116,0,7.493-3.295,7.575-7.43
	l0.243-12.265l45.131,7.553c-2.601,6.415-4.046,13.416-4.046,20.753c0,8.565,1.954,16.68,5.438,23.928l-22.101,2.267
	c-0.001,0-0.002,0-0.003,0l-25.547,2.62l0.126-6.38c0.083-4.186-3.243-7.645-7.428-7.727c-0.052-0.002-0.102-0.002-0.153-0.002
	c-4.116,0-7.493,3.295-7.575,7.43l-0.295,14.942c-0.042,2.17,0.847,4.256,2.444,5.726c1.406,1.295,3.241,2.003,5.134,2.003
	c0.257,0,0.515-0.013,0.774-0.039l26.673-2.736c2.819,13.12,12.484,30.705,35.968,38.099l-2.501,17.002
	c-0.32,2.18,0.322,4.391,1.762,6.057c1.44,1.666,3.534,2.625,5.736,2.625h19.072v35.122h-7.022c-4.186,0-7.579,3.392-7.579,7.579
	v62.277c0,4.187,3.393,7.579,7.579,7.579h7.018v9.355c0,4.187,3.394,7.579,7.579,7.579c4.186,0,7.579-3.392,7.579-7.579v-9.355
	h6.015v60.293v31.64v77.697h-6.015v-77.693v-31.64v-17.797c0-4.187-3.394-7.579-7.579-7.579c-4.186,0-7.579,3.392-7.579,7.579
	v14.657l-96.688,96.688c-2.96,2.961-2.96,7.759,0,10.719l14.972,14.972c1.479,1.479,3.419,2.219,5.359,2.219
	c1.915,0,3.831-0.722,5.304-2.166l71.052-69.617v67.238c0,4.187,3.393,7.579,7.579,7.579h21.173c4.186,0,7.579-3.392,7.579-7.579
	V437.18l71.052,69.617c1.474,1.444,3.389,2.166,5.304,2.166c1.94,0,3.881-0.741,5.359-2.219l14.972-14.972
	C373.814,488.812,373.814,484.014,370.854,481.053z M291.245,89.884l-54.464,54.464c-7.085-3.797-12.905-9.652-16.662-16.76
	l54.367-54.366C281.593,76.98,287.449,82.799,291.245,89.884z M295.933,106.634c0.039,0.73,0.063,1.463,0.063,2.203
	c0,22.201-18.062,40.263-40.263,40.263c-0.74,0-1.473-0.023-2.203-0.063L295.933,106.634z M296.812,173.945l-3.046-24.851
	c1.668-1.577,3.25-3.246,4.713-5.017l22.254,3.725C319.13,155.063,313.887,167.871,296.812,173.945z M350.015,80.02l-1.129,57.123
	l-41.985-7.027c2.737-6.556,4.255-13.743,4.255-21.279c0-8.695-2.018-16.926-5.602-24.257L350.015,80.02z M255.733,68.572
	c0.642,0,1.279,0.019,1.914,0.049l-42.129,42.129c-0.03-0.635-0.049-1.272-0.049-1.914C215.47,86.635,233.532,68.572,255.733,68.572
	z M193.078,149.303l17.745-1.82c1.438-0.148,2.736-0.695,3.808-1.511c1.494,1.651,3.092,3.204,4.773,4.665l-3.397,23.091
	C200.527,167.979,195.03,156.626,193.078,149.303z M233.413,159.549c6.833,3.02,14.38,4.709,22.319,4.709
	c8.574,0,16.698-1.958,23.952-5.448l4.987,40.686h-57.133L233.413,159.549z M252.992,215.665h6.015v34.111h-6.015L252.992,215.665
	L252.992,215.665z M245.413,312.053h-7.019v-47.119h7.018h21.173h5.655v47.119h-5.655H245.413z M161.53,490.721l-4.308-4.308
	l80.61-80.611v10.157L161.53,490.721z M350.468,490.721l-76.302-74.761v-10.157l80.61,80.611L350.468,490.721z"/>
</svg>